<svg xmlns="http://www.w3.org/2000/svg" data-name="Layer 1" viewBox="0 0 48 60" x="0px" y="0px"><title>error_16</title><path d="M14.29,16.79l.3-.29-.3-.29a1,1,0,0,1,1.42-1.42l.29.3.29-.3a1,1,0,0,1,1.42,1.42l-.3.29.3.29a1,1,0,0,1,0,1.42,1,1,0,0,1-1.42,0l-.29-.3-.29.3a1,1,0,0,1-1.42,0A1,1,0,0,1,14.29,16.79Zm16,1.42a1,1,0,0,0,1.42,0l.29-.3.29.3a1,1,0,0,0,1.42,0,1,1,0,0,0,0-1.42l-.3-.29.3-.29a1,1,0,0,0-1.42-1.42l-.29.3-.29-.3a1,1,0,0,0-1.42,1.42l.3.29-.3.29A1,1,0,0,0,30.29,18.21ZM19,27.5a1,1,0,0,0,.62-.22,7,7,0,0,1,8.76,0,1,1,0,0,0,1.25-1.56,9,9,0,0,0-11.25,0,1,1,0,0,0-.16,1.4A1,1,0,0,0,19,27.5ZM33,40H32V38H16v2H15a1,1,0,0,0,0,2H33a1,1,0,0,0,0-2ZM48,7V35a1,1,0,0,1-1,1H1a1,1,0,0,1-1-1V7A1,1,0,0,1,1,6H47A1,1,0,0,1,48,7ZM45,9H3V33H45Z"/><text x="0" y="63" fill="#000000" font-size="5px" font-weight="bold" font-family="'Helvetica Neue', Helvetica, Arial-Unicode, Arial, Sans-serif">Created by Mello</text><text x="0" y="68" fill="#000000" font-size="5px" font-weight="bold" font-family="'Helvetica Neue', Helvetica, Arial-Unicode, Arial, Sans-serif">from the Noun Project</text></svg>