<svg xmlns="http://www.w3.org/2000/svg" viewBox="0 0 24 30" x="0px" y="0px"><title>Lock</title><g><path d="M19.005,24H5a3,3,0,0,1-2.995-3V9A1,1,0,0,1,3,8H21a1,1,0,0,1,1,1V21.005A3,3,0,0,1,19.005,24ZM4,10V21.005a1,1,0,0,0,1,1h14.01a1,1,0,0,0,1-1V10Z"/><path d="M17,7a1,1,0,0,1-1-1A4,4,0,0,0,8,6,1,1,0,0,1,6,6,6,6,0,0,1,18,6,1,1,0,0,1,17,7Z"/><path d="M7,10A1,1,0,0,1,6,9V6A1,1,0,0,1,8,6V9A1,1,0,0,1,7,10Z"/><path d="M17,10a1,1,0,0,1-1-1V6a1,1,0,0,1,2,0V9A1,1,0,0,1,17,10Z"/><path d="M12,18a3,3,0,1,1,3-3A3,3,0,0,1,12,18Zm0-4a1,1,0,1,0,1,1A1,1,0,0,0,12,14Z"/><path d="M12,20a1,1,0,0,1-1-1V17a1,1,0,0,1,2,0v2A1,1,0,0,1,12,20Z"/></g><text x="0" y="39" fill="#000000" font-size="5px" font-weight="bold" font-family="'Helvetica Neue', Helvetica, Arial-Unicode, Arial, Sans-serif">Created by DailyPM</text><text x="0" y="44" fill="#000000" font-size="5px" font-weight="bold" font-family="'Helvetica Neue', Helvetica, Arial-Unicode, Arial, Sans-serif">from the Noun Project</text></svg>